<svg width="129" height="24" viewBox="0 0 129 24" fill="none" xmlns="http://www.w3.org/2000/svg">
<g clip-path="url(#clip0_83854_433)">
<path d="M2.1025 22.0513C0.968327 20.3682 0.405312 18.3503 0.5 16.3077V7.79487C0.362652 5.73031 0.890413 3.67661 2.00235 1.94872C3.10407 0.615385 4.80673 0 7.31064 0C9.81455 0 11.4171 0.615385 12.4186 1.74359C13.506 3.17255 14.0409 4.96181 13.921 6.76923V8.82051H9.0133V6.46154C9.05294 5.76385 8.95062 5.06533 8.71283 4.41026C8.58573 4.14583 8.38428 3.9264 8.1344 3.78018C7.88452 3.63395 7.59763 3.56763 7.31064 3.58974C6.60955 3.58974 6.10876 3.79487 5.90845 4.30769C5.68187 5.03643 5.58022 5.79984 5.60798 6.5641V17.5385C5.55509 18.2799 5.69324 19.0227 6.00861 19.6923C6.20892 20.2051 6.7097 20.4103 7.4108 20.4103C8.11189 20.4103 8.51252 20.2051 8.71283 19.6923C8.94055 18.9992 9.04239 18.2692 9.0133 17.5385V15.0769H13.921V17.1282C14.0228 18.9651 13.4911 20.7803 12.4186 22.2564C11.4171 23.4872 9.7144 24.1026 7.31064 24.1026C4.90689 24 3.10407 23.3846 2.1025 22.0513Z" fill="#111111"/>
<path d="M19.8302 0.307617H25.5391L29.7457 23.6922H25.1385L24.3372 18.7692H21.032L20.2308 23.6922H15.5234L19.8302 0.307617ZM23.9366 15.6922L22.7347 6.56403L21.5328 15.6922H23.9366Z" fill="#111111"/>
<path d="M33.2511 4.20505H29.8458V0.307617H41.7645V4.10249H38.3591V23.6922H33.2511V4.20505Z" fill="#111111"/>
<path d="M50.8787 0.307617H59.6925V2.76916H53.9836V10.4615H58.5908V12.8204H53.9836V21.4358H59.6925V23.7948H50.7786V0.307617H50.8787Z" fill="#111111"/>
<path d="M62.2965 0.307617H64.5L71.0101 15.7948V0.307617H73.6142V23.6922H71.6111L65.0007 7.69223V23.6922H62.2965V0.307617Z" fill="#111111"/>
<path d="M76.6189 0.307617H85.4327V2.76916H79.7237V10.4615H84.3309V12.8204H79.7237V21.4358H85.4327V23.7948H76.6189V0.307617Z" fill="#111111"/>
<path d="M88.0367 0.3076H92.6439C94.4563 0.179397 96.2574 0.685711 97.7519 1.7435C98.8536 2.66657 99.3544 4.3076 99.3544 6.46145C99.3544 9.4358 98.453 11.282 96.55 11.8973L99.755 23.5897H96.6501L93.6454 12.6153H91.1415V23.5897H87.9365V0.3076H88.0367ZM92.4436 10.3589C93.4761 10.446 94.5053 10.1553 95.3481 9.53837C95.949 9.02555 96.2495 7.99991 96.2495 6.46145C96.2773 5.69719 96.1756 4.93378 95.949 4.20504C95.7236 3.68211 95.3365 3.24964 94.8473 2.97427C94.1575 2.65236 93.4002 2.51137 92.6439 2.56401H91.2417V10.2563H92.4436V10.3589Z" fill="#111111"/>
<path d="M103.361 21.9487C102.32 20.1554 101.831 18.0821 101.958 15.9999V8.20507C101.934 6.71875 102.102 5.23567 102.459 3.79481C102.794 2.71811 103.462 1.78218 104.362 1.12815C105.481 0.450275 106.771 0.128917 108.068 0.20507C110.171 0.20507 111.674 0.71789 112.575 1.8461C113.612 3.33582 114.108 5.14977 113.977 6.9743V7.79481H110.973V7.07687C110.977 6.21789 110.91 5.36008 110.772 4.51276C110.688 3.97732 110.4 3.49792 109.971 3.17943C109.408 2.80104 108.74 2.62099 108.068 2.66661C107.35 2.61949 106.639 2.83785 106.065 3.28199C105.829 3.48529 105.637 3.73569 105.499 4.01787C105.361 4.30004 105.281 4.60805 105.264 4.92302C105.132 5.83993 105.065 6.76543 105.063 7.69225V16.4102C104.99 17.7384 105.194 19.0674 105.664 20.3076C106.065 21.1281 106.866 21.4358 108.068 21.4358C108.543 21.4964 109.024 21.4119 109.452 21.1929C109.879 20.9739 110.234 20.6302 110.472 20.2051C111.001 18.9081 111.241 17.5064 111.173 16.1025V14.4615H108.268V12.1025H114.077V23.6923H112.074L111.774 21.0256C111.511 21.9193 110.964 22.6975 110.22 23.2364C109.476 23.7753 108.578 24.0441 107.667 23.9999C106.84 24.0498 106.013 23.8885 105.261 23.5304C104.51 23.1724 103.857 22.6289 103.361 21.9487Z" fill="#111111"/>
<path d="M120.488 15.4871L115.58 0.410156H118.585L122.09 11.6922L125.495 0.410156H128.5L123.592 15.4871V23.6922H120.588V15.4871H120.488Z" fill="#111111"/>
</g>
<defs>
<clipPath id="clip0_83854_433">
<rect width="128" height="24" fill="white" transform="translate(0.5)"/>
</clipPath>
</defs>
</svg>
