<svg width="20" height="20" viewBox="0 0 20 20" xmlns="http://www.w3.org/2000/svg"><path d="M5.486 2.036c-.698.104-1.241.381-1.707.872-.356.375-.569.776-.702 1.325-.057.237-.06.548-.06 5.767s.003 5.53.06 5.767c.143.589.356.972.77 1.386.4.4.743.597 1.312.754.243.067.349.072 1.874.083 1.501.011 1.625.008 1.734-.047.244-.125.233.018.233-2.936 0-2.878.005-2.803-.187-2.929-.086-.056-.202-.062-1.453-.071L6 11.997V8h1.325c1.485 0 1.501-.002 1.617-.233.054-.108.058-.311.058-2.76 0-2.878.005-2.803-.187-2.929-.087-.057-.202-.062-1.611-.066-.835-.003-1.607.008-1.716.024M8 4.999v1.998l-1.36.01c-1.251.009-1.367.015-1.453.071-.192.126-.187.051-.187 2.929 0 2.449.004 2.652.058 2.76.116.231.132.233 1.617.233H8v4.005l-1.242-.013c-1.082-.011-1.265-.021-1.425-.073-.702-.23-1.159-.741-1.283-1.437-.071-.395-.071-10.569 0-10.964a1.781 1.781 0 0 1 .953-1.298c.386-.19.586-.214 1.872-.217L8 3v1.999m7.783 2.048c-.232.14-.34.336-.3.547.019.102.161.261.91 1.014l.887.892-3.699.002c-2.775.001-3.726.012-3.811.042-.165.057-.247.186-.261.414-.016.24.059.401.224.484.109.054.362.058 3.832.058h3.715l-.886.892c-.928.934-.961.978-.911 1.208.032.146.292.392.443.421.098.018.153.006.265-.057.078-.045.734-.672 1.459-1.394 1.431-1.427 1.435-1.433 1.356-1.698-.032-.104-.291-.38-1.357-1.442-.725-.722-1.374-1.347-1.442-1.388-.158-.096-.258-.094-.424.005" fill-rule="evenodd" fill="currentcolor"/></svg>
